<?xml version="1.0" standalone="no"?>
<!DOCTYPE svg PUBLIC "-//W3C//DTD SVG 20010904//EN"
 "http://www.w3.org/TR/2001/REC-SVG-20010904/DTD/svg10.dtd">
<svg version="1.0" xmlns="http://www.w3.org/2000/svg"
 width="16.000000pt" height="16.000000pt" viewBox="0 0 16.000000 16.000000"
 preserveAspectRatio="xMidYMid meet">
<metadata>
Created by potrace 1.11, written by Peter Selinger 2001-2013
</metadata>
<g transform="translate(0.000000,16.000000) scale(0.003200,-0.003200)"
fill="#000000" stroke="none">
<path d="M2450 4609 c-69 -13 -96 -27 -215 -108 -60 -42 -227 -155 -370 -253
-729 -495 -733 -499 -787 -599 -22 -42 -23 -54 -26 -292 -5 -382 -5 -383 299
-590 116 -78 220 -149 233 -157 33 -21 132 -88 336 -227 96 -65 281 -191 410
-278 129 -87 253 -172 274 -187 21 -15 42 -28 45 -28 11 0 7 199 -4 208 -6 5
-118 85 -250 177 -324 227 -886 622 -1015 713 -58 41 -109 80 -115 86 -8 11
-12 322 -5 446 1 19 17 36 66 70 35 25 74 53 87 62 24 19 497 363 562 410 71
50 141 101 266 193 67 50 132 95 143 102 15 8 104 12 301 12 l279 0 71 -52
c38 -28 72 -54 75 -57 3 -3 39 -30 80 -60 41 -30 77 -57 80 -60 3 -3 167 -126
365 -274 198 -148 361 -270 363 -271 1 -1 5 -22 7 -46 3 -24 10 -73 15 -109 5
-36 12 -90 15 -120 14 -118 17 -135 19 -137 3 -3 111 -5 169 -4 l37 1 0 206 0
207 -52 77 -51 77 -535 389 c-294 214 -553 401 -576 416 -38 25 -84 36 -221
54 -74 10 -330 12 -375 3z"/>
<path d="M2215 3914 c-181 -134 -412 -304 -512 -377 -195 -142 -220 -170 -207
-230 8 -41 31 -84 58 -113 19 -20 151 -115 896 -643 113 -80 207 -149 208
-153 2 -4 7 -8 12 -8 6 0 250 -170 328 -228 12 -9 137 -98 277 -197 140 -99
255 -182 254 -185 0 -3 -70 -52 -155 -110 -85 -58 -188 -128 -227 -156 -202
-142 -429 -293 -482 -322 l-59 -32 -56 53 c-30 30 -93 80 -140 112 -47 32
-227 155 -400 273 -173 118 -349 239 -391 268 -41 29 -81 54 -89 56 -11 2 -14
-21 -15 -121 l0 -124 109 -76 c60 -42 141 -98 180 -126 222 -154 338 -235 534
-372 l217 -153 55 5 c97 9 134 16 168 33 18 9 164 112 324 227 160 116 373
269 472 340 157 113 184 137 205 178 31 62 23 105 -27 153 -20 20 -208 155
-417 301 -209 146 -614 430 -900 631 -286 201 -549 385 -585 410 -36 25 -67
47 -69 49 -3 2 6 26 20 54 24 53 85 103 643 527 83 64 225 94 257 56 12 -14
205 -149 234 -164 6 -3 60 -39 120 -80 61 -41 115 -77 120 -80 6 -3 134 -88
285 -190 151 -102 280 -187 285 -189 6 -2 18 -10 28 -19 9 -8 17 -13 18 -11 0
2 2 72 3 155 l2 151 -493 311 c-271 172 -503 314 -515 316 -13 2 -70 14 -128
25 -58 12 -107 21 -110 20 -3 0 -153 -110 -335 -245z"/>
<path d="M2655 3121 l1 -99 104 -78 c58 -42 170 -125 248 -183 79 -58 226
-167 325 -241 100 -74 300 -222 445 -329 144 -106 265 -198 268 -203 10 -16 8
-408 -2 -418 -5 -5 -126 -92 -269 -194 -143 -102 -269 -192 -280 -200 -178
-130 -535 -381 -563 -395 -37 -19 -137 -48 -197 -58 -58 -9 -241 -3 -316 10
-62 11 -85 21 -135 58 -32 24 -61 46 -64 49 -3 3 -39 30 -80 60 -41 30 -82 60
-90 67 -8 7 -178 134 -377 282 -296 221 -362 275 -367 298 -3 15 -8 51 -11 78
-3 28 -10 84 -15 125 -5 41 -12 97 -15 125 -3 27 -9 52 -11 55 -3 3 -50 5
-105 6 l-99 0 2 -235 3 -235 200 -144 c110 -79 292 -210 403 -290 112 -81 214
-154 225 -162 12 -8 110 -78 217 -156 107 -77 207 -148 222 -158 40 -26 194
-44 358 -41 251 5 204 -20 862 450 l564 403 77 103 77 103 0 233 c0 231 0 233
-26 285 -26 52 -39 62 -600 453 -316 220 -582 406 -592 413 -70 53 -374 262
-380 262 -4 0 -7 -45 -7 -99z"/>
</g>
</svg>
